<svg xmlns="http://www.w3.org/2000/svg" xmlns:xlink="http://www.w3.org/1999/xlink" width="500" zoomAndPan="magnify" viewBox="0 0 375 374.999991" height="500" preserveAspectRatio="xMidYMid meet" version="1.0"><defs><g/></defs><path stroke-linecap="butt" transform="matrix(0.75, 0, 0, 0.75, 0.0000045, 0.000000697374)" fill="none" stroke-linejoin="miter" d="M -0.000006 -0.000000929833 L 500.000059 -0.000000929833 L 500.000059 502.000064 L -0.000006 502.000064 Z M -0.000006 -0.000000929833 " stroke="#000000" stroke-width="20" stroke-opacity="1" stroke-miterlimit="4"/><g fill="#000000" fill-opacity="1"><g transform="translate(36.201396, 203.755071)"><g><path d="M 46.578125 -102.828125 L 81.765625 -12.109375 C 83.210938 -8.460938 84.847656 -6.035156 86.671875 -4.828125 C 88.503906 -3.628906 90.1875 -2.984375 91.71875 -2.890625 L 91.71875 0 C 89.800781 -0.1875 87.445312 -0.304688 84.65625 -0.359375 C 81.863281 -0.410156 79.078125 -0.4375 76.296875 -0.4375 C 72.546875 -0.4375 69.035156 -0.410156 65.765625 -0.359375 C 62.492188 -0.304688 59.847656 -0.1875 57.828125 0 L 57.828125 -2.890625 C 62.734375 -3.078125 65.859375 -3.914062 67.203125 -5.40625 C 68.546875 -6.894531 68.257812 -10.09375 66.34375 -15 L 39.515625 -86.671875 L 41.828125 -88.546875 L 16.734375 -23.359375 C 15.191406 -19.515625 14.273438 -16.269531 13.984375 -13.625 C 13.703125 -10.976562 13.96875 -8.882812 14.78125 -7.34375 C 15.601562 -5.8125 17 -4.707031 18.96875 -4.03125 C 20.9375 -3.363281 23.410156 -2.984375 26.390625 -2.890625 L 26.390625 0 C 23.703125 -0.1875 20.890625 -0.304688 17.953125 -0.359375 C 15.023438 -0.410156 12.3125 -0.4375 9.8125 -0.4375 C 7.40625 -0.4375 5.359375 -0.410156 3.671875 -0.359375 C 1.992188 -0.304688 0.429688 -0.1875 -1.015625 0 L -1.015625 -2.890625 C 0.910156 -3.367188 2.882812 -4.492188 4.90625 -6.265625 C 6.925781 -8.046875 8.753906 -11.101562 10.390625 -15.4375 L 44.28125 -102.828125 C 44.664062 -102.828125 45.046875 -102.828125 45.421875 -102.828125 C 45.804688 -102.828125 46.191406 -102.828125 46.578125 -102.828125 Z M 64.171875 -41.53125 L 64.171875 -38.65625 L 21.203125 -38.65625 L 22.640625 -41.53125 Z M 64.171875 -41.53125 "/></g></g></g><g fill="#000000" fill-opacity="1"><g transform="translate(130.553491, 204.180111)"><g><path d="M 6.0625 -102.109375 C 8.070312 -102.015625 10.710938 -101.914062 13.984375 -101.8125 C 17.253906 -101.71875 20.476562 -101.671875 23.65625 -101.671875 C 28.175781 -101.671875 32.5 -101.71875 36.625 -101.8125 C 40.757812 -101.914062 43.691406 -101.96875 45.421875 -101.96875 C 55.523438 -101.96875 63.125 -99.847656 68.21875 -95.609375 C 73.3125 -91.378906 75.859375 -85.945312 75.859375 -79.3125 C 75.859375 -75.945312 75.160156 -72.65625 73.765625 -69.4375 C 72.367188 -66.21875 70.0625 -63.285156 66.84375 -60.640625 C 63.625 -57.992188 59.320312 -55.851562 53.9375 -54.21875 L 53.9375 -53.9375 C 61.53125 -52.976562 67.46875 -51.175781 71.75 -48.53125 C 76.03125 -45.882812 79.035156 -42.78125 80.765625 -39.21875 C 82.492188 -35.664062 83.359375 -31.921875 83.359375 -27.984375 C 83.359375 -22.503906 81.988281 -17.671875 79.25 -13.484375 C 76.507812 -9.296875 72.539062 -6 67.34375 -3.59375 C 62.15625 -1.195312 55.957031 0 48.75 0 C 46.632812 0 43.457031 -0.0703125 39.21875 -0.21875 C 34.988281 -0.363281 29.894531 -0.4375 23.9375 -0.4375 C 20.570312 -0.4375 17.253906 -0.410156 13.984375 -0.359375 C 10.710938 -0.304688 8.070312 -0.1875 6.0625 0 L 6.0625 -2.890625 C 9.320312 -3.078125 11.796875 -3.457031 13.484375 -4.03125 C 15.171875 -4.613281 16.300781 -5.769531 16.875 -7.5 C 17.445312 -9.226562 17.734375 -11.820312 17.734375 -15.28125 L 17.734375 -86.8125 C 17.734375 -90.375 17.445312 -92.992188 16.875 -94.671875 C 16.300781 -96.359375 15.171875 -97.515625 13.484375 -98.140625 C 11.796875 -98.765625 9.320312 -99.125 6.0625 -99.21875 Z M 41.828125 -99.21875 C 37.398438 -99.21875 34.515625 -98.398438 33.171875 -96.765625 C 31.828125 -95.128906 31.15625 -91.8125 31.15625 -86.8125 L 31.15625 -15.28125 C 31.15625 -11.914062 31.441406 -9.367188 32.015625 -7.640625 C 32.585938 -5.910156 33.644531 -4.753906 35.1875 -4.171875 C 36.726562 -3.597656 38.988281 -3.3125 41.96875 -3.3125 C 51.382812 -3.3125 58.234375 -5.5 62.515625 -9.875 C 66.796875 -14.25 68.9375 -20.476562 68.9375 -28.5625 C 68.9375 -35.957031 66.941406 -41.675781 62.953125 -45.71875 C 58.960938 -49.757812 52.398438 -51.78125 43.265625 -51.78125 L 28.40625 -51.78125 C 28.40625 -51.78125 28.40625 -52.1875 28.40625 -53 C 28.40625 -53.8125 28.40625 -54.21875 28.40625 -54.21875 L 40.8125 -54.21875 C 46.488281 -54.21875 50.863281 -55.300781 53.9375 -57.46875 C 57.007812 -59.632812 59.125 -62.519531 60.28125 -66.125 C 61.4375 -69.726562 62.015625 -73.597656 62.015625 -77.734375 C 62.015625 -84.847656 60.453125 -90.207031 57.328125 -93.8125 C 54.203125 -97.414062 49.035156 -99.21875 41.828125 -99.21875 Z M 41.828125 -99.21875 "/></g></g></g><g fill="#000000" fill-opacity="1"><g transform="translate(33.374651, 68.074525)"><g><path d="M 18.828125 -38.75 C 23.460938 -38.75 27.109375 -37.0625 29.765625 -33.6875 C 32.429688 -30.320312 33.765625 -25.5625 33.765625 -19.40625 C 33.765625 -15.40625 33.226562 -11.84375 32.15625 -8.71875 C 31.082031 -5.59375 29.65625 -2.867188 27.875 -0.546875 C 26.09375 1.773438 24.113281 3.71875 21.9375 5.28125 C 19.757812 6.84375 17.546875 8.070312 15.296875 8.96875 C 13.054688 9.875 10.9375 10.5 8.9375 10.84375 L 8.640625 9.375 C 10.640625 8.789062 12.703125 7.960938 14.828125 6.890625 C 16.953125 5.816406 18.90625 4.253906 20.6875 2.203125 C 22.46875 0.148438 23.90625 -2.609375 25 -6.078125 C 26.101562 -9.546875 26.65625 -13.941406 26.65625 -19.265625 C 26.65625 -24.046875 26.21875 -27.726562 25.34375 -30.3125 C 24.46875 -32.90625 23.378906 -34.710938 22.078125 -35.734375 C 20.785156 -36.765625 19.457031 -37.28125 18.09375 -37.28125 C 16.675781 -37.28125 15.332031 -36.78125 14.0625 -35.78125 C 12.789062 -34.78125 11.765625 -33.164062 10.984375 -30.9375 C 10.203125 -28.71875 9.8125 -25.78125 9.8125 -22.125 C 9.8125 -18.601562 10.164062 -15.789062 10.875 -13.6875 C 11.582031 -11.59375 12.546875 -10.082031 13.765625 -9.15625 C 14.992188 -8.226562 16.3125 -7.765625 17.71875 -7.765625 C 18.800781 -7.765625 19.972656 -8.007812 21.234375 -8.5 C 22.503906 -8.988281 23.6875 -9.816406 24.78125 -10.984375 C 25.882812 -12.160156 26.660156 -13.773438 27.109375 -15.828125 L 27.828125 -16.265625 C 27.492188 -13.523438 26.640625 -11.382812 25.265625 -9.84375 C 23.898438 -8.3125 22.363281 -7.226562 20.65625 -6.59375 C 18.945312 -5.957031 17.359375 -5.640625 15.890625 -5.640625 C 13.648438 -5.640625 11.515625 -6.257812 9.484375 -7.5 C 7.460938 -8.75 5.828125 -10.554688 4.578125 -12.921875 C 3.328125 -15.296875 2.703125 -18.191406 2.703125 -21.609375 C 2.703125 -25.273438 3.4375 -28.390625 4.90625 -30.953125 C 6.375 -33.515625 8.328125 -35.453125 10.765625 -36.765625 C 13.210938 -38.085938 15.898438 -38.75 18.828125 -38.75 Z M 18.828125 -38.75 "/></g></g></g><g fill="#000000" fill-opacity="1"><g transform="translate(70.654922, 68.074525)"><g><path d="M 17.875 -38.75 C 21.238281 -38.75 23.910156 -37.953125 25.890625 -36.359375 C 27.867188 -34.773438 28.859375 -32.492188 28.859375 -29.515625 C 28.859375 -27.566406 28.40625 -25.722656 27.5 -23.984375 C 26.601562 -22.253906 25.421875 -20.59375 23.953125 -19 C 22.484375 -17.414062 20.921875 -15.878906 19.265625 -14.390625 C 17.609375 -12.898438 16 -11.4375 14.4375 -10 C 12.875 -8.5625 11.550781 -7.109375 10.46875 -5.640625 L 25.34375 -5.640625 C 27.34375 -5.640625 28.609375 -5.921875 29.140625 -6.484375 C 29.679688 -7.046875 30.050781 -8.007812 30.25 -9.375 L 31.5 -9.375 C 31.5 -6.789062 31.519531 -4.800781 31.5625 -3.40625 C 31.613281 -2.007812 31.691406 -0.753906 31.796875 0.359375 C 31.347656 0.265625 30.535156 0.191406 29.359375 0.140625 C 28.191406 0.0976562 26.851562 0.0625 25.34375 0.03125 C 23.832031 0.0078125 22.34375 0 20.875 0 L 3.734375 0 L 3.734375 -1.25 C 5.203125 -2.851562 6.960938 -4.570312 9.015625 -6.40625 C 11.066406 -8.238281 13.054688 -10.238281 14.984375 -12.40625 C 16.910156 -14.582031 18.519531 -16.953125 19.8125 -19.515625 C 21.101562 -22.078125 21.75 -24.875 21.75 -27.90625 C 21.75 -30.6875 21.101562 -32.695312 19.8125 -33.9375 C 18.519531 -35.1875 16.726562 -35.8125 14.4375 -35.8125 C 12.476562 -35.8125 10.664062 -35.238281 9 -34.09375 C 7.34375 -32.945312 5.878906 -31.226562 4.609375 -28.9375 L 3.4375 -29.59375 C 4.175781 -31.15625 5.164062 -32.628906 6.40625 -34.015625 C 7.65625 -35.410156 9.21875 -36.546875 11.09375 -37.421875 C 12.976562 -38.304688 15.238281 -38.75 17.875 -38.75 Z M 17.875 -38.75 "/></g></g></g><g fill="#000000" fill-opacity="1"><g transform="translate(33.892803, 270.967425)"><g><path d="M 9.125 -20.140625 L 16.015625 -2.375 C 16.296875 -1.65625 16.613281 -1.175781 16.96875 -0.9375 C 17.332031 -0.707031 17.664062 -0.582031 17.96875 -0.5625 L 17.96875 0 C 17.59375 -0.0390625 17.128906 -0.0625 16.578125 -0.0625 C 16.035156 -0.0703125 15.488281 -0.078125 14.9375 -0.078125 C 14.207031 -0.078125 13.519531 -0.0703125 12.875 -0.0625 C 12.238281 -0.0625 11.722656 -0.0390625 11.328125 0 L 11.328125 -0.5625 C 12.285156 -0.601562 12.894531 -0.769531 13.15625 -1.0625 C 13.425781 -1.351562 13.375 -1.976562 13 -2.9375 L 7.734375 -16.984375 L 8.1875 -17.34375 L 3.28125 -4.578125 C 2.976562 -3.828125 2.796875 -3.191406 2.734375 -2.671875 C 2.679688 -2.148438 2.734375 -1.738281 2.890625 -1.4375 C 3.054688 -1.132812 3.332031 -0.914062 3.71875 -0.78125 C 4.101562 -0.65625 4.585938 -0.582031 5.171875 -0.5625 L 5.171875 0 C 4.640625 -0.0390625 4.085938 -0.0625 3.515625 -0.0625 C 2.941406 -0.0703125 2.410156 -0.078125 1.921875 -0.078125 C 1.453125 -0.078125 1.050781 -0.0703125 0.71875 -0.0625 C 0.382812 -0.0625 0.078125 -0.0390625 -0.203125 0 L -0.203125 -0.5625 C 0.179688 -0.65625 0.566406 -0.875 0.953125 -1.21875 C 1.347656 -1.570312 1.707031 -2.171875 2.03125 -3.015625 L 8.671875 -20.140625 C 8.742188 -20.140625 8.816406 -20.140625 8.890625 -20.140625 C 8.972656 -20.140625 9.050781 -20.140625 9.125 -20.140625 Z M 12.578125 -8.140625 L 12.578125 -7.578125 L 4.15625 -7.578125 L 4.4375 -8.140625 Z M 12.578125 -8.140625 "/></g></g></g><g fill="#000000" fill-opacity="1"><g transform="translate(51.685411, 270.967425)"><g><path d="M 5.3125 -22.140625 L 5.3125 -2.625 C 5.3125 -1.832031 5.472656 -1.296875 5.796875 -1.015625 C 6.128906 -0.734375 6.679688 -0.59375 7.453125 -0.59375 L 7.453125 0 C 7.140625 -0.0195312 6.65625 -0.0390625 6 -0.0625 C 5.351562 -0.09375 4.703125 -0.109375 4.046875 -0.109375 C 3.398438 -0.109375 2.75 -0.09375 2.09375 -0.0625 C 1.4375 -0.0390625 0.945312 -0.0195312 0.625 0 L 0.625 -0.59375 C 1.394531 -0.59375 1.941406 -0.734375 2.265625 -1.015625 C 2.597656 -1.296875 2.765625 -1.832031 2.765625 -2.625 L 2.765625 -18.765625 C 2.765625 -19.609375 2.613281 -20.234375 2.3125 -20.640625 C 2.007812 -21.046875 1.445312 -21.25 0.625 -21.25 L 0.625 -21.84375 C 1.226562 -21.78125 1.8125 -21.75 2.375 -21.75 C 2.914062 -21.75 3.4375 -21.78125 3.9375 -21.84375 C 4.4375 -21.914062 4.894531 -22.015625 5.3125 -22.140625 Z M 5.3125 -22.140625 "/></g></g></g><g fill="#000000" fill-opacity="1"><g transform="translate(59.762685, 270.967425)"><g><path d="M 7.6875 -14.9375 C 9.34375 -14.9375 10.632812 -14.429688 11.5625 -13.421875 C 12.5 -12.421875 12.96875 -10.859375 12.96875 -8.734375 L 3 -8.734375 L 2.96875 -9.265625 L 10.25 -9.265625 C 10.289062 -10.191406 10.21875 -11.046875 10.03125 -11.828125 C 9.84375 -12.609375 9.546875 -13.234375 9.140625 -13.703125 C 8.734375 -14.171875 8.210938 -14.40625 7.578125 -14.40625 C 6.703125 -14.40625 5.929688 -13.972656 5.265625 -13.109375 C 4.597656 -12.242188 4.195312 -10.867188 4.0625 -8.984375 L 4.15625 -8.875 C 4.113281 -8.59375 4.082031 -8.28125 4.0625 -7.9375 C 4.050781 -7.601562 4.046875 -7.265625 4.046875 -6.921875 C 4.046875 -5.640625 4.25 -4.535156 4.65625 -3.609375 C 5.070312 -2.691406 5.613281 -1.992188 6.28125 -1.515625 C 6.945312 -1.035156 7.640625 -0.796875 8.359375 -0.796875 C 8.921875 -0.796875 9.457031 -0.882812 9.96875 -1.0625 C 10.476562 -1.238281 10.945312 -1.535156 11.375 -1.953125 C 11.8125 -2.367188 12.191406 -2.921875 12.515625 -3.609375 L 13.078125 -3.390625 C 12.867188 -2.765625 12.53125 -2.160156 12.0625 -1.578125 C 11.59375 -0.992188 11 -0.519531 10.28125 -0.15625 C 9.5625 0.207031 8.734375 0.390625 7.796875 0.390625 C 6.441406 0.390625 5.28125 0.0820312 4.3125 -0.53125 C 3.34375 -1.15625 2.597656 -2.019531 2.078125 -3.125 C 1.554688 -4.226562 1.296875 -5.492188 1.296875 -6.921875 C 1.296875 -8.578125 1.554688 -10.003906 2.078125 -11.203125 C 2.609375 -12.398438 3.351562 -13.320312 4.3125 -13.96875 C 5.28125 -14.613281 6.40625 -14.9375 7.6875 -14.9375 Z M 7.6875 -14.9375 "/></g></g></g><g fill="#000000" fill-opacity="1"><g transform="translate(74.053253, 270.967425)"><g><path d="M 5.984375 -14.546875 L 5.984375 -13.953125 C 5.628906 -13.953125 5.328125 -13.867188 5.078125 -13.703125 C 4.835938 -13.535156 4.8125 -13.300781 5 -13 L 12.546875 -2 C 12.859375 -1.53125 13.132812 -1.195312 13.375 -1 C 13.625 -0.800781 13.929688 -0.664062 14.296875 -0.59375 L 14.296875 0 C 14.109375 -0.0195312 13.820312 -0.0390625 13.4375 -0.0625 C 13.050781 -0.09375 12.664062 -0.109375 12.28125 -0.109375 C 11.695312 -0.109375 11.070312 -0.09375 10.40625 -0.0625 C 9.738281 -0.0390625 9.253906 -0.0195312 8.953125 0 L 8.953125 -0.59375 C 9.328125 -0.59375 9.632812 -0.679688 9.875 -0.859375 C 10.125 -1.035156 10.144531 -1.265625 9.9375 -1.546875 L 2.40625 -12.546875 C 2.03125 -13.085938 1.726562 -13.445312 1.5 -13.625 C 1.269531 -13.8125 0.988281 -13.921875 0.65625 -13.953125 L 0.65625 -14.546875 C 0.84375 -14.523438 1.132812 -14.5 1.53125 -14.46875 C 1.925781 -14.445312 2.300781 -14.4375 2.65625 -14.4375 C 3.257812 -14.4375 3.890625 -14.445312 4.546875 -14.46875 C 5.203125 -14.5 5.679688 -14.523438 5.984375 -14.546875 Z M 6.75 -7.375 C 6.75 -7.375 6.765625 -7.3125 6.796875 -7.1875 C 6.835938 -7.0625 6.878906 -6.929688 6.921875 -6.796875 C 6.972656 -6.671875 7 -6.609375 7 -6.609375 L 4.65625 -3.5625 C 4.164062 -2.914062 3.90625 -2.375 3.875 -1.9375 C 3.851562 -1.507812 4.03125 -1.1875 4.40625 -0.96875 C 4.78125 -0.757812 5.296875 -0.625 5.953125 -0.5625 L 5.953125 0 C 5.640625 -0.0195312 5.285156 -0.0351562 4.890625 -0.046875 C 4.492188 -0.0546875 4.109375 -0.0625 3.734375 -0.0625 C 3.367188 -0.0703125 3.035156 -0.078125 2.734375 -0.078125 C 2.304688 -0.078125 1.914062 -0.0703125 1.5625 -0.0625 C 1.21875 -0.0625 0.894531 -0.0390625 0.59375 0 L 0.59375 -0.5625 C 0.945312 -0.601562 1.316406 -0.769531 1.703125 -1.0625 C 2.085938 -1.351562 2.546875 -1.847656 3.078125 -2.546875 Z M 13.734375 -14.546875 L 13.734375 -13.984375 C 13.367188 -13.941406 12.972656 -13.753906 12.546875 -13.421875 C 12.128906 -13.097656 11.695312 -12.625 11.25 -12 L 8 -7.515625 C 8 -7.515625 7.976562 -7.570312 7.9375 -7.6875 C 7.894531 -7.8125 7.851562 -7.9375 7.8125 -8.0625 C 7.78125 -8.1875 7.765625 -8.25 7.765625 -8.25 L 9.96875 -11.328125 C 10.382812 -11.910156 10.648438 -12.390625 10.765625 -12.765625 C 10.878906 -13.140625 10.816406 -13.425781 10.578125 -13.625 C 10.335938 -13.820312 9.878906 -13.941406 9.203125 -13.984375 L 9.203125 -14.546875 C 9.691406 -14.523438 10.101562 -14.503906 10.4375 -14.484375 C 10.769531 -14.472656 11.148438 -14.46875 11.578125 -14.46875 C 12.015625 -14.46875 12.40625 -14.472656 12.75 -14.484375 C 13.101562 -14.503906 13.429688 -14.523438 13.734375 -14.546875 Z M 13.734375 -14.546875 "/></g></g></g><g fill="#000000" fill-opacity="1"><g transform="translate(88.710971, 270.967425)"><g/></g></g><g fill="#000000" fill-opacity="1"><g transform="translate(95.743285, 270.967425)"><g><path d="M 1.1875 -20 C 1.582031 -19.976562 2.097656 -19.957031 2.734375 -19.9375 C 3.378906 -19.925781 4.015625 -19.921875 4.640625 -19.921875 C 5.515625 -19.921875 6.359375 -19.925781 7.171875 -19.9375 C 7.984375 -19.957031 8.5625 -19.96875 8.90625 -19.96875 C 10.875 -19.96875 12.359375 -19.550781 13.359375 -18.71875 C 14.359375 -17.894531 14.859375 -16.832031 14.859375 -15.53125 C 14.859375 -14.875 14.722656 -14.226562 14.453125 -13.59375 C 14.179688 -12.96875 13.726562 -12.394531 13.09375 -11.875 C 12.457031 -11.363281 11.613281 -10.945312 10.5625 -10.625 L 10.5625 -10.5625 C 12.050781 -10.375 13.210938 -10.019531 14.046875 -9.5 C 14.890625 -8.988281 15.476562 -8.382812 15.8125 -7.6875 C 16.15625 -6.988281 16.328125 -6.253906 16.328125 -5.484375 C 16.328125 -4.410156 16.054688 -3.460938 15.515625 -2.640625 C 14.984375 -1.816406 14.207031 -1.171875 13.1875 -0.703125 C 12.175781 -0.234375 10.960938 0 9.546875 0 C 9.128906 0 8.503906 -0.0078125 7.671875 -0.03125 C 6.847656 -0.0625 5.851562 -0.078125 4.6875 -0.078125 C 4.03125 -0.078125 3.378906 -0.0703125 2.734375 -0.0625 C 2.097656 -0.0625 1.582031 -0.0390625 1.1875 0 L 1.1875 -0.5625 C 1.820312 -0.601562 2.304688 -0.675781 2.640625 -0.78125 C 2.972656 -0.894531 3.191406 -1.125 3.296875 -1.46875 C 3.410156 -1.8125 3.46875 -2.320312 3.46875 -3 L 3.46875 -17 C 3.46875 -17.695312 3.410156 -18.210938 3.296875 -18.546875 C 3.191406 -18.878906 2.972656 -19.101562 2.640625 -19.21875 C 2.304688 -19.34375 1.820312 -19.414062 1.1875 -19.4375 Z M 8.1875 -19.4375 C 7.320312 -19.4375 6.757812 -19.273438 6.5 -18.953125 C 6.238281 -18.628906 6.109375 -17.976562 6.109375 -17 L 6.109375 -3 C 6.109375 -2.332031 6.160156 -1.828125 6.265625 -1.484375 C 6.378906 -1.148438 6.585938 -0.925781 6.890625 -0.8125 C 7.191406 -0.707031 7.632812 -0.65625 8.21875 -0.65625 C 10.0625 -0.65625 11.398438 -1.082031 12.234375 -1.9375 C 13.078125 -2.789062 13.5 -4.007812 13.5 -5.59375 C 13.5 -7.039062 13.109375 -8.160156 12.328125 -8.953125 C 11.546875 -9.742188 10.257812 -10.140625 8.46875 -10.140625 L 5.5625 -10.140625 C 5.5625 -10.140625 5.5625 -10.21875 5.5625 -10.375 C 5.5625 -10.539062 5.5625 -10.625 5.5625 -10.625 L 8 -10.625 C 9.101562 -10.625 9.957031 -10.832031 10.5625 -11.25 C 11.164062 -11.675781 11.578125 -12.242188 11.796875 -12.953125 C 12.023438 -13.660156 12.140625 -14.421875 12.140625 -15.234375 C 12.140625 -16.617188 11.832031 -17.664062 11.21875 -18.375 C 10.613281 -19.082031 9.601562 -19.4375 8.1875 -19.4375 Z M 8.1875 -19.4375 "/></g></g></g><g fill="#000000" fill-opacity="1"><g transform="translate(113.338198, 270.967425)"><g><path d="M 4.828125 0.203125 C 4.054688 0.203125 3.390625 0.0546875 2.828125 -0.234375 C 2.265625 -0.523438 1.835938 -0.9375 1.546875 -1.46875 C 1.253906 -2 1.109375 -2.613281 1.109375 -3.3125 C 1.109375 -4.132812 1.300781 -4.804688 1.6875 -5.328125 C 2.070312 -5.859375 2.5625 -6.285156 3.15625 -6.609375 C 3.757812 -6.929688 4.394531 -7.195312 5.0625 -7.40625 C 5.738281 -7.625 6.375 -7.832031 6.96875 -8.03125 C 7.570312 -8.226562 8.066406 -8.457031 8.453125 -8.71875 C 8.847656 -8.988281 9.046875 -9.34375 9.046875 -9.78125 L 9.046875 -11.53125 C 9.046875 -12.320312 8.925781 -12.921875 8.6875 -13.328125 C 8.445312 -13.742188 8.128906 -14.019531 7.734375 -14.15625 C 7.335938 -14.300781 6.894531 -14.375 6.40625 -14.375 C 5.9375 -14.375 5.429688 -14.304688 4.890625 -14.171875 C 4.359375 -14.046875 3.929688 -13.773438 3.609375 -13.359375 C 3.972656 -13.285156 4.285156 -13.097656 4.546875 -12.796875 C 4.804688 -12.492188 4.9375 -12.109375 4.9375 -11.640625 C 4.9375 -11.171875 4.785156 -10.796875 4.484375 -10.515625 C 4.191406 -10.242188 3.804688 -10.109375 3.328125 -10.109375 C 2.785156 -10.109375 2.382812 -10.28125 2.125 -10.625 C 1.875 -10.976562 1.75 -11.375 1.75 -11.8125 C 1.75 -12.300781 1.867188 -12.695312 2.109375 -13 C 2.359375 -13.300781 2.671875 -13.582031 3.046875 -13.84375 C 3.484375 -14.144531 4.046875 -14.398438 4.734375 -14.609375 C 5.421875 -14.828125 6.195312 -14.9375 7.0625 -14.9375 C 7.832031 -14.9375 8.488281 -14.847656 9.03125 -14.671875 C 9.582031 -14.492188 10.035156 -14.238281 10.390625 -13.90625 C 10.878906 -13.445312 11.195312 -12.890625 11.34375 -12.234375 C 11.5 -11.585938 11.578125 -10.816406 11.578125 -9.921875 L 11.578125 -2.0625 C 11.578125 -1.59375 11.644531 -1.253906 11.78125 -1.046875 C 11.925781 -0.835938 12.148438 -0.734375 12.453125 -0.734375 C 12.660156 -0.734375 12.859375 -0.78125 13.046875 -0.875 C 13.234375 -0.96875 13.460938 -1.117188 13.734375 -1.328125 L 14.046875 -0.84375 C 13.648438 -0.539062 13.269531 -0.289062 12.90625 -0.09375 C 12.550781 0.101562 12.070312 0.203125 11.46875 0.203125 C 10.925781 0.203125 10.472656 0.109375 10.109375 -0.078125 C 9.753906 -0.273438 9.488281 -0.554688 9.3125 -0.921875 C 9.132812 -1.285156 9.046875 -1.75 9.046875 -2.3125 C 8.535156 -1.46875 7.925781 -0.835938 7.21875 -0.421875 C 6.507812 -0.00390625 5.710938 0.203125 4.828125 0.203125 Z M 5.84375 -0.9375 C 6.46875 -0.9375 7.046875 -1.113281 7.578125 -1.46875 C 8.117188 -1.820312 8.609375 -2.359375 9.046875 -3.078125 L 9.046875 -8.609375 C 8.816406 -8.296875 8.484375 -8.03125 8.046875 -7.8125 C 7.617188 -7.59375 7.148438 -7.375 6.640625 -7.15625 C 6.128906 -6.945312 5.640625 -6.691406 5.171875 -6.390625 C 4.710938 -6.097656 4.332031 -5.71875 4.03125 -5.25 C 3.738281 -4.78125 3.59375 -4.171875 3.59375 -3.421875 C 3.59375 -2.660156 3.789062 -2.054688 4.1875 -1.609375 C 4.59375 -1.160156 5.144531 -0.9375 5.84375 -0.9375 Z M 5.84375 -0.9375 "/></g></g></g><g fill="#000000" fill-opacity="1"><g transform="translate(127.402825, 270.967425)"><g><path d="M 5.25 -22.125 L 5.25 -11.546875 C 5.738281 -12.828125 6.421875 -13.710938 7.296875 -14.203125 C 8.171875 -14.691406 9.09375 -14.9375 10.0625 -14.9375 C 10.769531 -14.9375 11.363281 -14.84375 11.84375 -14.65625 C 12.332031 -14.46875 12.734375 -14.207031 13.046875 -13.875 C 13.410156 -13.5 13.664062 -13.023438 13.8125 -12.453125 C 13.96875 -11.890625 14.046875 -11.128906 14.046875 -10.171875 L 14.046875 -2.625 C 14.046875 -1.832031 14.207031 -1.296875 14.53125 -1.015625 C 14.863281 -0.734375 15.414062 -0.59375 16.1875 -0.59375 L 16.1875 0 C 15.863281 -0.0195312 15.375 -0.0390625 14.71875 -0.0625 C 14.0625 -0.09375 13.421875 -0.109375 12.796875 -0.109375 C 12.171875 -0.109375 11.5625 -0.09375 10.96875 -0.0625 C 10.375 -0.0390625 9.929688 -0.0195312 9.640625 0 L 9.640625 -0.59375 C 10.316406 -0.59375 10.796875 -0.734375 11.078125 -1.015625 C 11.359375 -1.296875 11.5 -1.832031 11.5 -2.625 L 11.5 -10.796875 C 11.5 -11.378906 11.453125 -11.914062 11.359375 -12.40625 C 11.265625 -12.894531 11.050781 -13.289062 10.71875 -13.59375 C 10.382812 -13.894531 9.878906 -14.046875 9.203125 -14.046875 C 8.429688 -14.046875 7.75 -13.828125 7.15625 -13.390625 C 6.5625 -12.953125 6.09375 -12.347656 5.75 -11.578125 C 5.414062 -10.804688 5.25 -9.921875 5.25 -8.921875 L 5.25 -2.625 C 5.25 -1.832031 5.390625 -1.296875 5.671875 -1.015625 C 5.960938 -0.734375 6.445312 -0.59375 7.125 -0.59375 L 7.125 0 C 6.820312 -0.0195312 6.375 -0.0390625 5.78125 -0.0625 C 5.1875 -0.09375 4.578125 -0.109375 3.953125 -0.109375 C 3.328125 -0.109375 2.6875 -0.09375 2.03125 -0.0625 C 1.375 -0.0390625 0.882812 -0.0195312 0.5625 0 L 0.5625 -0.59375 C 1.332031 -0.59375 1.882812 -0.734375 2.21875 -1.015625 C 2.550781 -1.296875 2.71875 -1.832031 2.71875 -2.625 L 2.71875 -18.734375 C 2.71875 -19.578125 2.566406 -20.203125 2.265625 -20.609375 C 1.960938 -21.015625 1.394531 -21.21875 0.5625 -21.21875 L 0.5625 -21.8125 C 1.164062 -21.75 1.75 -21.71875 2.3125 -21.71875 C 2.863281 -21.71875 3.390625 -21.75 3.890625 -21.8125 C 4.390625 -21.882812 4.84375 -21.988281 5.25 -22.125 Z M 5.25 -22.125 "/></g></g></g><g fill="#000000" fill-opacity="1"><g transform="translate(144.009254, 270.967425)"><g><path d="M 7.6875 -14.9375 C 9.34375 -14.9375 10.632812 -14.429688 11.5625 -13.421875 C 12.5 -12.421875 12.96875 -10.859375 12.96875 -8.734375 L 3 -8.734375 L 2.96875 -9.265625 L 10.25 -9.265625 C 10.289062 -10.191406 10.21875 -11.046875 10.03125 -11.828125 C 9.84375 -12.609375 9.546875 -13.234375 9.140625 -13.703125 C 8.734375 -14.171875 8.210938 -14.40625 7.578125 -14.40625 C 6.703125 -14.40625 5.929688 -13.972656 5.265625 -13.109375 C 4.597656 -12.242188 4.195312 -10.867188 4.0625 -8.984375 L 4.15625 -8.875 C 4.113281 -8.59375 4.082031 -8.28125 4.0625 -7.9375 C 4.050781 -7.601562 4.046875 -7.265625 4.046875 -6.921875 C 4.046875 -5.640625 4.25 -4.535156 4.65625 -3.609375 C 5.070312 -2.691406 5.613281 -1.992188 6.28125 -1.515625 C 6.945312 -1.035156 7.640625 -0.796875 8.359375 -0.796875 C 8.921875 -0.796875 9.457031 -0.882812 9.96875 -1.0625 C 10.476562 -1.238281 10.945312 -1.535156 11.375 -1.953125 C 11.8125 -2.367188 12.191406 -2.921875 12.515625 -3.609375 L 13.078125 -3.390625 C 12.867188 -2.765625 12.53125 -2.160156 12.0625 -1.578125 C 11.59375 -0.992188 11 -0.519531 10.28125 -0.15625 C 9.5625 0.207031 8.734375 0.390625 7.796875 0.390625 C 6.441406 0.390625 5.28125 0.0820312 4.3125 -0.53125 C 3.34375 -1.15625 2.597656 -2.019531 2.078125 -3.125 C 1.554688 -4.226562 1.296875 -5.492188 1.296875 -6.921875 C 1.296875 -8.578125 1.554688 -10.003906 2.078125 -11.203125 C 2.609375 -12.398438 3.351562 -13.320312 4.3125 -13.96875 C 5.28125 -14.613281 6.40625 -14.9375 7.6875 -14.9375 Z M 7.6875 -14.9375 "/></g></g></g><g fill="#000000" fill-opacity="1"><g transform="translate(158.299822, 270.967425)"><g><path d="M 10.3125 -14.9375 C 11.03125 -14.9375 11.628906 -14.84375 12.109375 -14.65625 C 12.585938 -14.46875 12.988281 -14.207031 13.3125 -13.875 C 13.664062 -13.5 13.914062 -13.023438 14.0625 -12.453125 C 14.21875 -11.890625 14.296875 -11.128906 14.296875 -10.171875 L 14.296875 -2.625 C 14.296875 -1.832031 14.457031 -1.296875 14.78125 -1.015625 C 15.113281 -0.734375 15.664062 -0.59375 16.4375 -0.59375 L 16.4375 0 C 16.125 -0.0195312 15.632812 -0.0390625 14.96875 -0.0625 C 14.3125 -0.09375 13.671875 -0.109375 13.046875 -0.109375 C 12.429688 -0.109375 11.828125 -0.09375 11.234375 -0.0625 C 10.640625 -0.0390625 10.191406 -0.0195312 9.890625 0 L 9.890625 -0.59375 C 10.566406 -0.59375 11.046875 -0.734375 11.328125 -1.015625 C 11.609375 -1.296875 11.75 -1.832031 11.75 -2.625 L 11.75 -10.796875 C 11.75 -11.378906 11.703125 -11.914062 11.609375 -12.40625 C 11.515625 -12.894531 11.300781 -13.289062 10.96875 -13.59375 C 10.644531 -13.894531 10.144531 -14.046875 9.46875 -14.046875 C 8.675781 -14.046875 7.984375 -13.816406 7.390625 -13.359375 C 6.796875 -12.910156 6.332031 -12.296875 6 -11.515625 C 5.675781 -10.734375 5.515625 -9.863281 5.515625 -8.90625 L 5.515625 -2.625 C 5.515625 -1.832031 5.65625 -1.296875 5.9375 -1.015625 C 6.21875 -0.734375 6.695312 -0.59375 7.375 -0.59375 L 7.375 0 C 7.070312 -0.0195312 6.625 -0.0390625 6.03125 -0.0625 C 5.4375 -0.09375 4.828125 -0.109375 4.203125 -0.109375 C 3.585938 -0.109375 2.945312 -0.09375 2.28125 -0.0625 C 1.625 -0.0390625 1.132812 -0.0195312 0.8125 0 L 0.8125 -0.59375 C 1.59375 -0.59375 2.144531 -0.734375 2.46875 -1.015625 C 2.800781 -1.296875 2.96875 -1.832031 2.96875 -2.625 L 2.96875 -11.46875 C 2.96875 -12.3125 2.816406 -12.9375 2.515625 -13.34375 C 2.210938 -13.75 1.644531 -13.953125 0.8125 -13.953125 L 0.8125 -14.546875 C 1.414062 -14.492188 2.003906 -14.46875 2.578125 -14.46875 C 3.117188 -14.46875 3.640625 -14.5 4.140625 -14.5625 C 4.640625 -14.625 5.097656 -14.722656 5.515625 -14.859375 L 5.515625 -11.53125 C 6.003906 -12.8125 6.6875 -13.695312 7.5625 -14.1875 C 8.4375 -14.6875 9.351562 -14.9375 10.3125 -14.9375 Z M 10.3125 -14.9375 "/></g></g></g><g fill="#000000" fill-opacity="1"><g transform="translate(175.160436, 270.967425)"><g><path d="M 4.828125 0.203125 C 4.054688 0.203125 3.390625 0.0546875 2.828125 -0.234375 C 2.265625 -0.523438 1.835938 -0.9375 1.546875 -1.46875 C 1.253906 -2 1.109375 -2.613281 1.109375 -3.3125 C 1.109375 -4.132812 1.300781 -4.804688 1.6875 -5.328125 C 2.070312 -5.859375 2.5625 -6.285156 3.15625 -6.609375 C 3.757812 -6.929688 4.394531 -7.195312 5.0625 -7.40625 C 5.738281 -7.625 6.375 -7.832031 6.96875 -8.03125 C 7.570312 -8.226562 8.066406 -8.457031 8.453125 -8.71875 C 8.847656 -8.988281 9.046875 -9.34375 9.046875 -9.78125 L 9.046875 -11.53125 C 9.046875 -12.320312 8.925781 -12.921875 8.6875 -13.328125 C 8.445312 -13.742188 8.128906 -14.019531 7.734375 -14.15625 C 7.335938 -14.300781 6.894531 -14.375 6.40625 -14.375 C 5.9375 -14.375 5.429688 -14.304688 4.890625 -14.171875 C 4.359375 -14.046875 3.929688 -13.773438 3.609375 -13.359375 C 3.972656 -13.285156 4.285156 -13.097656 4.546875 -12.796875 C 4.804688 -12.492188 4.9375 -12.109375 4.9375 -11.640625 C 4.9375 -11.171875 4.785156 -10.796875 4.484375 -10.515625 C 4.191406 -10.242188 3.804688 -10.109375 3.328125 -10.109375 C 2.785156 -10.109375 2.382812 -10.28125 2.125 -10.625 C 1.875 -10.976562 1.75 -11.375 1.75 -11.8125 C 1.75 -12.300781 1.867188 -12.695312 2.109375 -13 C 2.359375 -13.300781 2.671875 -13.582031 3.046875 -13.84375 C 3.484375 -14.144531 4.046875 -14.398438 4.734375 -14.609375 C 5.421875 -14.828125 6.195312 -14.9375 7.0625 -14.9375 C 7.832031 -14.9375 8.488281 -14.847656 9.03125 -14.671875 C 9.582031 -14.492188 10.035156 -14.238281 10.390625 -13.90625 C 10.878906 -13.445312 11.195312 -12.890625 11.34375 -12.234375 C 11.5 -11.585938 11.578125 -10.816406 11.578125 -9.921875 L 11.578125 -2.0625 C 11.578125 -1.59375 11.644531 -1.253906 11.78125 -1.046875 C 11.925781 -0.835938 12.148438 -0.734375 12.453125 -0.734375 C 12.660156 -0.734375 12.859375 -0.78125 13.046875 -0.875 C 13.234375 -0.96875 13.460938 -1.117188 13.734375 -1.328125 L 14.046875 -0.84375 C 13.648438 -0.539062 13.269531 -0.289062 12.90625 -0.09375 C 12.550781 0.101562 12.070312 0.203125 11.46875 0.203125 C 10.925781 0.203125 10.472656 0.109375 10.109375 -0.078125 C 9.753906 -0.273438 9.488281 -0.554688 9.3125 -0.921875 C 9.132812 -1.285156 9.046875 -1.75 9.046875 -2.3125 C 8.535156 -1.46875 7.925781 -0.835938 7.21875 -0.421875 C 6.507812 -0.00390625 5.710938 0.203125 4.828125 0.203125 Z M 5.84375 -0.9375 C 6.46875 -0.9375 7.046875 -1.113281 7.578125 -1.46875 C 8.117188 -1.820312 8.609375 -2.359375 9.046875 -3.078125 L 9.046875 -8.609375 C 8.816406 -8.296875 8.484375 -8.03125 8.046875 -7.8125 C 7.617188 -7.59375 7.148438 -7.375 6.640625 -7.15625 C 6.128906 -6.945312 5.640625 -6.691406 5.171875 -6.390625 C 4.710938 -6.097656 4.332031 -5.71875 4.03125 -5.25 C 3.738281 -4.78125 3.59375 -4.171875 3.59375 -3.421875 C 3.59375 -2.660156 3.789062 -2.054688 4.1875 -1.609375 C 4.59375 -1.160156 5.144531 -0.9375 5.84375 -0.9375 Z M 5.84375 -0.9375 "/></g></g></g><g fill="#000000" fill-opacity="1"><g transform="translate(34.193534, 338.425348)"><g><path d="M 7.140625 -14.859375 L 7.140625 -2.90625 C 7.140625 -2 7.347656 -1.382812 7.765625 -1.0625 C 8.179688 -0.75 8.878906 -0.59375 9.859375 -0.59375 L 9.859375 0 C 9.484375 -0.0195312 8.929688 -0.0390625 8.203125 -0.0625 C 7.484375 -0.09375 6.734375 -0.109375 5.953125 -0.109375 C 5.085938 -0.109375 4.253906 -0.09375 3.453125 -0.0625 C 2.660156 -0.0390625 2.046875 -0.0195312 1.609375 0 L 1.609375 -0.59375 C 2.546875 -0.59375 3.28125 -0.75 3.8125 -1.0625 C 4.34375 -1.375 4.609375 -1.988281 4.609375 -2.90625 L 4.609375 -9.75 C 4.609375 -10.65625 4.515625 -11.320312 4.328125 -11.75 C 4.140625 -12.1875 3.800781 -12.46875 3.3125 -12.59375 C 2.832031 -12.726562 2.171875 -12.796875 1.328125 -12.796875 L 1.328125 -13.421875 C 2.679688 -13.453125 3.8125 -13.570312 4.71875 -13.78125 C 5.625 -13.988281 6.429688 -14.347656 7.140625 -14.859375 Z M 7.140625 -14.859375 "/></g></g></g><g fill="#000000" fill-opacity="1"><g transform="translate(44.643156, 338.425348)"><g><path d="M 7.265625 -14.9375 C 9.046875 -14.9375 10.445312 -14.285156 11.46875 -12.984375 C 12.5 -11.691406 13.015625 -9.859375 13.015625 -7.484375 C 13.015625 -5.941406 12.804688 -4.566406 12.390625 -3.359375 C 11.984375 -2.148438 11.4375 -1.097656 10.75 -0.203125 C 10.0625 0.679688 9.296875 1.425781 8.453125 2.03125 C 7.617188 2.632812 6.769531 3.109375 5.90625 3.453125 C 5.039062 3.804688 4.222656 4.050781 3.453125 4.1875 L 3.328125 3.609375 C 4.097656 3.390625 4.894531 3.070312 5.71875 2.65625 C 6.539062 2.238281 7.296875 1.632812 7.984375 0.84375 C 8.671875 0.0507812 9.222656 -1.007812 9.640625 -2.34375 C 10.066406 -3.675781 10.28125 -5.375 10.28125 -7.4375 C 10.28125 -9.28125 10.109375 -10.695312 9.765625 -11.6875 C 9.429688 -12.6875 9.015625 -13.382812 8.515625 -13.78125 C 8.015625 -14.175781 7.503906 -14.375 6.984375 -14.375 C 6.429688 -14.375 5.910156 -14.179688 5.421875 -13.796875 C 4.929688 -13.410156 4.535156 -12.789062 4.234375 -11.9375 C 3.929688 -11.082031 3.78125 -9.945312 3.78125 -8.53125 C 3.78125 -7.175781 3.914062 -6.09375 4.1875 -5.28125 C 4.46875 -4.46875 4.84375 -3.882812 5.3125 -3.53125 C 5.78125 -3.175781 6.289062 -3 6.84375 -3 C 7.25 -3 7.695312 -3.09375 8.1875 -3.28125 C 8.675781 -3.46875 9.132812 -3.785156 9.5625 -4.234375 C 9.988281 -4.691406 10.285156 -5.316406 10.453125 -6.109375 L 10.734375 -6.265625 C 10.597656 -5.210938 10.265625 -4.390625 9.734375 -3.796875 C 9.210938 -3.203125 8.625 -2.78125 7.96875 -2.53125 C 7.3125 -2.289062 6.695312 -2.171875 6.125 -2.171875 C 5.257812 -2.171875 4.4375 -2.410156 3.65625 -2.890625 C 2.875 -3.367188 2.242188 -4.066406 1.765625 -4.984375 C 1.285156 -5.898438 1.046875 -7.015625 1.046875 -8.328125 C 1.046875 -9.742188 1.328125 -10.945312 1.890625 -11.9375 C 2.453125 -12.925781 3.203125 -13.671875 4.140625 -14.171875 C 5.085938 -14.679688 6.128906 -14.9375 7.265625 -14.9375 Z M 7.265625 -14.9375 "/></g></g></g><g fill="#000000" fill-opacity="1"><g transform="translate(59.018445, 338.425348)"><g><path d="M 11.125 -20.421875 L 11.25 -19.859375 C 10.625 -19.648438 9.984375 -19.382812 9.328125 -19.0625 C 8.679688 -18.75 8.054688 -18.304688 7.453125 -17.734375 C 6.847656 -17.171875 6.3125 -16.453125 5.84375 -15.578125 C 5.375 -14.703125 5 -13.617188 4.71875 -12.328125 C 4.4375 -11.035156 4.296875 -9.488281 4.296875 -7.6875 C 4.296875 -5.707031 4.460938 -4.171875 4.796875 -3.078125 C 5.140625 -1.984375 5.566406 -1.222656 6.078125 -0.796875 C 6.585938 -0.378906 7.09375 -0.171875 7.59375 -0.171875 C 8.164062 -0.171875 8.691406 -0.363281 9.171875 -0.75 C 9.648438 -1.132812 10.039062 -1.757812 10.34375 -2.625 C 10.644531 -3.488281 10.796875 -4.617188 10.796875 -6.015625 C 10.796875 -7.367188 10.65625 -8.453125 10.375 -9.265625 C 10.101562 -10.078125 9.738281 -10.660156 9.28125 -11.015625 C 8.820312 -11.367188 8.304688 -11.546875 7.734375 -11.546875 C 7.328125 -11.546875 6.878906 -11.453125 6.390625 -11.265625 C 5.898438 -11.078125 5.445312 -10.757812 5.03125 -10.3125 C 4.613281 -9.875 4.3125 -9.253906 4.125 -8.453125 L 3.84375 -8.28125 C 3.976562 -9.332031 4.304688 -10.15625 4.828125 -10.75 C 5.359375 -11.34375 5.957031 -11.757812 6.625 -12 C 7.289062 -12.25 7.898438 -12.375 8.453125 -12.375 C 9.335938 -12.375 10.164062 -12.132812 10.9375 -11.65625 C 11.707031 -11.175781 12.332031 -10.476562 12.8125 -9.5625 C 13.289062 -8.644531 13.53125 -7.53125 13.53125 -6.21875 C 13.53125 -4.800781 13.25 -3.597656 12.6875 -2.609375 C 12.125 -1.617188 11.367188 -0.867188 10.421875 -0.359375 C 9.484375 0.140625 8.445312 0.390625 7.3125 0.390625 C 5.53125 0.390625 4.125 -0.304688 3.09375 -1.703125 C 2.0625 -3.109375 1.546875 -5.082031 1.546875 -7.625 C 1.546875 -9.34375 1.753906 -10.859375 2.171875 -12.171875 C 2.585938 -13.492188 3.140625 -14.640625 3.828125 -15.609375 C 4.515625 -16.578125 5.273438 -17.390625 6.109375 -18.046875 C 6.953125 -18.710938 7.8125 -19.238281 8.6875 -19.625 C 9.5625 -20.007812 10.375 -20.273438 11.125 -20.421875 Z M 11.125 -20.421875 "/></g></g></g><g fill="#000000" fill-opacity="1"><g transform="translate(73.619675, 338.425348)"><g><path d="M 3.5625 -3.21875 C 4.050781 -3.21875 4.472656 -3.035156 4.828125 -2.671875 C 5.191406 -2.316406 5.375 -1.894531 5.375 -1.40625 C 5.375 -0.914062 5.191406 -0.492188 4.828125 -0.140625 C 4.472656 0.210938 4.050781 0.390625 3.5625 0.390625 C 3.070312 0.390625 2.644531 0.210938 2.28125 -0.140625 C 1.925781 -0.492188 1.75 -0.914062 1.75 -1.40625 C 1.75 -1.894531 1.925781 -2.316406 2.28125 -2.671875 C 2.644531 -3.035156 3.070312 -3.21875 3.5625 -3.21875 Z M 3.5625 -3.21875 "/></g></g></g><g fill="#000000" fill-opacity="1"><g transform="translate(80.73672, 338.425348)"><g><path d="M 7.265625 -14.9375 C 9.046875 -14.9375 10.445312 -14.285156 11.46875 -12.984375 C 12.5 -11.691406 13.015625 -9.859375 13.015625 -7.484375 C 13.015625 -5.941406 12.804688 -4.566406 12.390625 -3.359375 C 11.984375 -2.148438 11.4375 -1.097656 10.75 -0.203125 C 10.0625 0.679688 9.296875 1.425781 8.453125 2.03125 C 7.617188 2.632812 6.769531 3.109375 5.90625 3.453125 C 5.039062 3.804688 4.222656 4.050781 3.453125 4.1875 L 3.328125 3.609375 C 4.097656 3.390625 4.894531 3.070312 5.71875 2.65625 C 6.539062 2.238281 7.296875 1.632812 7.984375 0.84375 C 8.671875 0.0507812 9.222656 -1.007812 9.640625 -2.34375 C 10.066406 -3.675781 10.28125 -5.375 10.28125 -7.4375 C 10.28125 -9.28125 10.109375 -10.695312 9.765625 -11.6875 C 9.429688 -12.6875 9.015625 -13.382812 8.515625 -13.78125 C 8.015625 -14.175781 7.503906 -14.375 6.984375 -14.375 C 6.429688 -14.375 5.910156 -14.179688 5.421875 -13.796875 C 4.929688 -13.410156 4.535156 -12.789062 4.234375 -11.9375 C 3.929688 -11.082031 3.78125 -9.945312 3.78125 -8.53125 C 3.78125 -7.175781 3.914062 -6.09375 4.1875 -5.28125 C 4.46875 -4.46875 4.84375 -3.882812 5.3125 -3.53125 C 5.78125 -3.175781 6.289062 -3 6.84375 -3 C 7.25 -3 7.695312 -3.09375 8.1875 -3.28125 C 8.675781 -3.46875 9.132812 -3.785156 9.5625 -4.234375 C 9.988281 -4.691406 10.285156 -5.316406 10.453125 -6.109375 L 10.734375 -6.265625 C 10.597656 -5.210938 10.265625 -4.390625 9.734375 -3.796875 C 9.210938 -3.203125 8.625 -2.78125 7.96875 -2.53125 C 7.3125 -2.289062 6.695312 -2.171875 6.125 -2.171875 C 5.257812 -2.171875 4.4375 -2.410156 3.65625 -2.890625 C 2.875 -3.367188 2.242188 -4.066406 1.765625 -4.984375 C 1.285156 -5.898438 1.046875 -7.015625 1.046875 -8.328125 C 1.046875 -9.742188 1.328125 -10.945312 1.890625 -11.9375 C 2.453125 -12.925781 3.203125 -13.671875 4.140625 -14.171875 C 5.085938 -14.679688 6.128906 -14.9375 7.265625 -14.9375 Z M 7.265625 -14.9375 "/></g></g></g><g fill="#000000" fill-opacity="1"><g transform="translate(95.112009, 338.425348)"><g><path d="M 0.765625 -14.65625 C 0.929688 -14.625 1.238281 -14.597656 1.6875 -14.578125 C 2.144531 -14.554688 2.664062 -14.539062 3.25 -14.53125 C 3.832031 -14.519531 4.40625 -14.515625 4.96875 -14.515625 L 11.25 -14.515625 L 11.25 -13.921875 C 10.851562 -12.960938 10.375 -11.972656 9.8125 -10.953125 C 9.257812 -9.941406 8.710938 -8.851562 8.171875 -7.6875 C 7.640625 -6.53125 7.195312 -5.28125 6.84375 -3.9375 C 6.5 -2.59375 6.335938 -1.109375 6.359375 0.515625 C 6.359375 0.804688 6.363281 1.082031 6.375 1.34375 C 6.394531 1.613281 6.414062 1.859375 6.4375 2.078125 C 6.457031 2.304688 6.46875 2.523438 6.46875 2.734375 C 6.46875 3.148438 6.34375 3.492188 6.09375 3.765625 C 5.851562 4.046875 5.535156 4.1875 5.140625 4.1875 C 4.703125 4.1875 4.378906 4.023438 4.171875 3.703125 C 3.972656 3.378906 3.875 3.007812 3.875 2.59375 C 3.875 1.3125 4.035156 0.0820312 4.359375 -1.09375 C 4.691406 -2.28125 5.117188 -3.4375 5.640625 -4.5625 C 6.171875 -5.6875 6.75 -6.78125 7.375 -7.84375 C 8.007812 -8.90625 8.632812 -9.9375 9.25 -10.9375 C 9.863281 -11.945312 10.414062 -12.941406 10.90625 -13.921875 L 10.109375 -12.140625 L 3.25 -12.140625 C 2.476562 -12.140625 1.988281 -12.035156 1.78125 -11.828125 C 1.570312 -11.628906 1.429688 -11.253906 1.359375 -10.703125 L 0.875 -10.703125 C 0.875 -11.703125 0.863281 -12.503906 0.84375 -13.109375 C 0.820312 -13.710938 0.796875 -14.226562 0.765625 -14.65625 Z M 0.765625 -14.65625 "/></g></g></g></svg>